# xmcd
#
# Track frame offsets: 
#        182
#        26537
#        46542
#        59790
#        78697
#        103265
#        132747
#
# Disc length: 2082 seconds
#
# Revision: 9
# Processed by: cddbd v1.5.2PL0 Copyright (c) Steve Scherf et al.
# Submitted via: ExactAudioCopy v0.99pb4
#
DISCID=62082007
DTITLE=Deep Purple - Who Do We Think We Are!
DYEAR=1973
DGENRE=Hard Rock
TTITLE0=Woman From Tokyo
TTITLE1=Mary Long
TTITLE2=Super Trouper
TTITLE3=Smooth Dancer
TTITLE4=Rat Bat Blue
TTITLE5=Place In Line
TTITLE6=Our Lady
EXTD=
EXTT0=
EXTT1=
EXTT2=
EXTT3=
EXTT4=
EXTT5=
EXTT6=
PLAYORDER=
